# xmcd CD database file
#
# Track frame offsets:
#	150
#	30679
#	72591
#	97991
#	129290
#	167507
#	193215
#	219395
#	255408
#	292191
#	305775
#
# Disc length: 4630 seconds
#
# Revision: 0
# Processed by: cddbd v1.5.1PL0 Copyright (c) Steve Scherf et al.
# Submitted via: CDex 1.51
#
DISCID=a312140b
DTITLE=Living Jazz Trio - Vo 2 -Sel. Temas en Vivo
DYEAR=2004
DGENRE=Jazz
TTITLE0=Route 66
TTITLE1=Take Five
TTITLE2=There wil never be another you
TTITLE3=Maga
TTITLE4=Some other blues
TTITLE5=How high the Moon
TTITLE6=Tenderly
TTITLE7=Au Privave
TTITLE8=Summertime
TTITLE9=I've got a rythm
TTITLE10=St James infirmary
EXTD=YEAR: 2004
EXTT0=
EXTT1=
EXTT2=
EXTT3=
EXTT4=
EXTT5=
EXTT6=
EXTT7=
EXTT8=
EXTT9=
EXTT10=
PLAYORDER=
